<?xml version="1.0" standalone="no"?>
<!DOCTYPE svg PUBLIC "-//W3C//DTD SVG 20010904//EN"
 "http://www.w3.org/TR/2001/REC-SVG-20010904/DTD/svg10.dtd">
<svg version="1.0" xmlns="http://www.w3.org/2000/svg"
 width="1746.000000pt" height="1746.000000pt" viewBox="0 0 1746.000000 1746.000000"
 preserveAspectRatio="xMidYMid meet">
<metadata>
Created by potrace 1.14, written by Peter Selinger 2001-2017
</metadata>
<g transform="translate(0.000000,1746.000000) scale(0.100000,-0.100000)"
fill="#000000" stroke="none">
<path d="M6537 17277 c-102 -393 -259 -982 -263 -986 -7 -8 -323 -95 -564
-156 -140 -36 -327 -87 -415 -115 -88 -27 -165 -50 -172 -50 -6 0 -226 214
-487 475 -262 261 -480 475 -485 475 -9 0 -1028 -625 -1045 -640 -4 -5 44
-159 109 -347 65 -186 157 -454 206 -595 l88 -258 -144 -119 c-257 -214 -454
-408 -720 -709 l-31 -34 -634 186 -635 186 -15 -21 c-27 -40 -630 -1071 -630
-1079 0 -4 190 -178 422 -386 233 -209 442 -397 465 -419 l41 -40 -172 -605
-172 -605 -642 -125 -642 -125 0 -631 0 -631 28 -6 c15 -3 283 -53 597 -113
314 -59 573 -110 577 -113 3 -3 37 -114 73 -246 37 -132 116 -413 175 -625
l108 -385 -42 -40 c-23 -22 -149 -137 -281 -255 -487 -436 -615 -553 -615
-563 0 -20 593 -1097 604 -1097 6 0 207 68 446 151 239 83 503 174 586 202
l151 50 140 -144 c77 -79 166 -174 199 -210 32 -36 167 -177 299 -313 132
-135 241 -251 243 -256 3 -7 -202 -705 -328 -1117 l-28 -93 92 -63 c50 -35
263 -182 473 -326 l382 -262 30 22 c17 12 28 26 25 31 -3 5 -1 7 4 6 9 -3 85
62 709 604 150 131 279 236 285 233 490 -161 586 -189 882 -255 120 -27 222
-52 226 -57 5 -4 50 -206 101 -448 50 -242 111 -528 133 -635 l41 -195 606 -3
605 -2 153 627 c84 346 156 631 159 634 4 4 45 12 92 18 246 34 619 122 893
211 85 28 159 50 165 50 9 0 250 -257 752 -801 l154 -168 46 26 c25 14 47 29
50 32 3 3 10 7 17 8 18 4 327 175 334 186 3 5 9 8 13 7 9 -1 316 164 316 171
0 3 -62 73 -137 155 -76 83 -300 328 -498 544 -198 217 -404 443 -457 502
l-98 106 0 386 0 385 -136 158 c-75 87 -149 170 -163 184 l-27 26 -90 -49
c-125 -70 -385 -187 -537 -242 -340 -123 -668 -196 -1062 -237 -134 -14 -546
-18 -700 -7 -602 45 -1224 229 -1710 507 -529 302 -972 706 -1332 1213 -395
556 -658 1217 -752 1891 -111 793 26 1612 399 2372 124 253 345 615 365 597 4
-4 6 -2 2 3 -10 19 234 330 249 317 4 -4 4 -2 1 4 -4 7 52 73 131 155 333 346
689 613 1089 814 78 40 139 76 135 80 -4 5 -2 5 4 2 7 -4 61 14 120 39 800
336 1763 407 2629 193 502 -124 1020 -363 1410 -651 306 -226 598 -513 832
-818 464 -606 757 -1329 860 -2125 22 -176 26 -727 5 -900 -63 -531 -208
-1007 -448 -1474 -52 -102 -91 -187 -87 -190 5 -3 8 -11 8 -17 0 -6 74 -81
165 -167 l165 -156 100 -3 c55 -1 111 -2 125 -3 14 -1 146 -5 294 -9 148 -5
283 -10 300 -12 17 -1 36 -3 42 -3 6 -1 265 -260 575 -576 528 -538 565 -574
580 -557 27 29 369 499 369 507 0 4 -21 31 -47 59 -72 79 -438 470 -632 676
-96 102 -192 203 -212 225 l-38 40 41 112 c23 62 45 110 49 107 5 -3 6 1 3 9
-6 16 280 797 296 807 6 4 273 73 593 155 320 82 592 152 605 156 l22 9 0 594
0 595 -82 26 c-46 14 -334 103 -642 198 l-558 172 -34 135 c-18 74 -50 209
-69 300 -20 91 -56 244 -82 340 -25 96 -54 210 -65 253 l-21 78 239 237 c132
131 347 344 480 475 l241 237 -39 73 c-21 39 -43 79 -48 87 -5 8 -62 114 -126
235 -65 121 -120 222 -124 225 -4 3 -10 14 -14 25 -4 11 -48 95 -97 187 -80
148 -93 167 -112 163 -20 -4 -1221 -187 -1322 -201 -40 -6 -40 -6 -108 78
-118 143 -366 404 -514 540 -78 71 -140 135 -138 141 16 48 296 1261 293 1273
-2 8 -209 145 -462 304 l-458 290 -62 -57 c-33 -31 -126 -117 -206 -192 -80
-75 -244 -228 -365 -341 -121 -113 -245 -229 -276 -258 l-56 -52 -114 44
c-247 95 -511 174 -804 241 l-180 41 -41 144 c-22 80 -101 367 -175 637 l-134
493 -605 0 -605 0 -48 -183z"/>
<path d="M6870 14030 c-653 -35 -1296 -260 -1835 -645 -265 -189 -561 -468
-751 -705 -382 -479 -631 -1018 -733 -1586 -75 -418 -73 -866 5 -1294 179
-975 741 -1845 1539 -2377 477 -318 1050 -514 1655 -567 540 -47 1095 28 1600
216 159 59 433 191 578 278 58 35 107 59 112 54 4 -5 179 -186 389 -403 l381
-395 0 -410 0 -410 1779 -1781 c978 -979 2277 -2281 2886 -2893 l1108 -1112
352 0 353 0 208 218 c115 120 291 305 390 412 100 107 270 287 378 400 l195
205 0 325 0 325 -1467 1481 c-807 815 -2088 2107 -2846 2873 l-1379 1391 -406
0 -406 0 -432 425 -432 426 48 77 c251 405 415 884 487 1417 22 160 26 663 6
820 -95 772 -377 1429 -843 1970 -464 538 -1074 927 -1769 1130 -357 104 -785
154 -1150 135z m655 -635 c657 -87 1236 -364 1710 -816 248 -238 457 -523 610
-834 150 -304 233 -570 291 -923 21 -130 30 -588 15 -745 -64 -661 -339 -1272
-797 -1772 -115 -125 -181 -182 -381 -328 -486 -357 -892 -529 -1423 -604
-177 -25 -635 -25 -805 1 -372 54 -657 144 -976 307 -294 150 -512 310 -755
553 -197 198 -321 354 -451 571 -226 376 -367 795 -419 1245 -21 184 -15 608
11 770 81 512 261 960 543 1349 102 141 166 217 291 344 506 517 1170 832
1892 896 144 13 500 5 644 -14z"/>
<path d="M7010 12524 c-589 -54 -1102 -327 -1465 -779 -206 -256 -355 -574
-419 -895 -217 -1085 446 -2158 1508 -2440 199 -53 290 -64 531 -64 163 0 246
5 320 17 915 158 1599 855 1741 1773 22 149 23 431 0 588 -133 921 -840 1640
-1752 1781 -99 15 -379 27 -464 19z"/>
</g>
</svg>
