<?xml version="1.0" standalone="no"?>
<!DOCTYPE svg PUBLIC "-//W3C//DTD SVG 20010904//EN"
 "http://www.w3.org/TR/2001/REC-SVG-20010904/DTD/svg10.dtd">
<svg version="1.0" xmlns="http://www.w3.org/2000/svg"
 width="16.000000pt" height="16.000000pt" viewBox="0 0 16.000000 16.000000"
 preserveAspectRatio="xMidYMid meet">
<metadata>
Created by potrace 1.11, written by Peter Selinger 2001-2013
</metadata>
<g transform="translate(0.000000,16.000000) scale(0.000916,-0.000916)"
fill="#000000" stroke="none">
<path d="M6576 17443 c-3 -10 -73 -272 -155 -582 -83 -310 -153 -566 -155
-568 -9 -9 -353 -104 -571 -158 -121 -30 -301 -80 -399 -110 l-180 -56 -481
481 -482 481 -524 -322 c-288 -177 -527 -325 -531 -328 -7 -6 47 -167 278
-834 l128 -369 -35 -26 c-243 -190 -652 -583 -824 -794 l-30 -36 -440 129
c-743 217 -834 243 -838 239 -3 -3 -150 -252 -327 -554 l-322 -549 24 -22 c12
-12 109 -98 213 -191 276 -245 684 -614 689 -623 7 -10 -8 -64 -179 -671 -81
-289 -152 -529 -156 -534 -4 -5 -140 -35 -301 -66 -161 -32 -447 -88 -635
-125 l-343 -67 0 -634 c0 -349 1 -634 3 -634 66 -9 1191 -231 1197 -236 13
-15 351 -1244 345 -1255 -6 -9 -361 -330 -768 -694 -92 -82 -167 -152 -167
-156 0 -4 109 -206 243 -450 134 -244 266 -487 295 -539 28 -52 55 -101 60
-108 6 -9 60 5 228 64 494 171 966 334 969 334 2 0 115 -118 252 -262 136
-145 332 -350 436 -458 103 -107 187 -200 187 -207 0 -11 -96 -340 -296 -1016
-31 -104 -55 -190 -53 -192 5 -4 531 -365 729 -500 80 -54 161 -111 181 -127
l37 -28 43 35 c24 20 55 46 69 59 14 13 66 58 115 100 50 43 117 102 150 131
33 29 139 121 235 205 96 84 202 176 235 205 132 116 193 165 204 165 6 0 107
-32 223 -70 268 -89 450 -139 692 -191 105 -23 192 -42 193 -43 1 0 60 -282
132 -626 72 -344 136 -635 141 -647 l10 -23 604 0 604 0 61 247 c33 135 66
250 73 254 8 5 8 9 2 9 -15 0 109 510 127 521 8 5 9 9 3 9 -11 0 34 211 48
225 3 4 83 20 178 36 282 47 614 130 860 213 57 20 105 36 106 36 3 0 326
-346 662 -708 134 -144 245 -262 247 -262 8 0 761 414 772 424 9 8 -16 41
-100 131 -62 67 -242 264 -402 440 -159 176 -379 416 -487 535 l-198 215 0
386 0 386 -148 169 c-82 93 -156 175 -164 182 -14 11 -30 5 -108 -38 -268
-149 -611 -282 -935 -364 -1180 -297 -2432 -79 -3393 591 -265 185 -609 505
-816 759 -519 640 -839 1374 -946 2174 -27 199 -38 609 -21 800 14 168 42 370
50 366 3 -2 7 17 7 43 3 87 104 490 131 517 8 8 10 14 4 14 -19 0 119 367 147
388 9 7 11 12 4 12 -8 0 -6 13 8 40 11 22 25 40 30 40 5 0 7 6 4 14 -7 17 102
235 121 242 7 3 12 11 9 17 -5 15 32 77 46 77 6 0 8 4 5 10 -8 13 67 140 83
140 7 0 11 4 7 10 -8 12 116 199 133 200 7 0 11 4 7 9 -13 22 280 377 441 536
209 206 402 366 605 503 537 360 1137 576 1829 659 203 24 696 24 902 0 538
-64 998 -199 1448 -428 611 -310 1121 -766 1517 -1359 556 -832 813 -1853 708
-2810 -59 -537 -241 -1110 -494 -1560 -36 -63 -49 -95 -42 -103 5 -7 10 -15
11 -19 0 -4 36 -40 78 -80 42 -40 116 -110 163 -156 l85 -83 436 -15 436 -14
248 -253 c137 -138 391 -396 564 -573 173 -177 320 -322 326 -322 6 -1 36 34
68 78 31 44 62 80 67 80 6 0 8 4 4 9 -3 5 3 16 13 23 11 7 20 18 20 23 2 16
123 175 133 175 6 0 8 4 4 9 -3 5 5 17 17 25 12 9 19 16 15 16 -5 0 6 20 24
45 l32 44 -135 143 c-74 79 -204 217 -288 308 -85 91 -224 239 -309 330 -86
91 -166 177 -179 191 l-23 26 36 99 c20 54 42 104 51 110 8 7 11 14 6 15 -9 4
144 436 158 449 3 3 6 12 8 20 5 26 114 325 122 333 4 4 279 78 611 163 332
85 607 159 612 163 4 4 6 274 5 600 l-3 593 -110 34 c-60 18 -348 107 -640
197 l-530 164 -46 189 c-25 104 -56 236 -68 294 -12 58 -51 216 -87 352 -35
136 -64 256 -64 267 0 11 10 27 22 36 13 8 169 160 348 338 179 177 383 378
454 447 l129 125 -39 75 c-47 89 -496 923 -500 929 -2 2 -65 -6 -141 -18 -76
-11 -374 -57 -663 -101 -289 -44 -537 -82 -551 -84 -24 -5 -41 11 -162 152
-125 144 -371 396 -525 535 l-64 57 112 473 c207 877 195 820 176 832 -9 5
-211 133 -449 283 -238 151 -442 278 -454 284 -20 10 -31 3 -105 -68 -114
-109 -217 -206 -393 -369 -82 -76 -213 -199 -291 -272 -202 -190 -187 -180
-243 -159 -312 120 -695 234 -964 287 -41 8 -72 19 -77 28 -7 14 -113 389
-125 444 -2 12 -43 159 -90 327 -47 168 -87 314 -89 325 -3 11 -9 34 -15 50
-5 17 -15 49 -21 73 l-11 42 -609 0 c-571 0 -609 -1 -614 -17z"/>
<path d="M6791 14030 c-1146 -90 -2200 -756 -2805 -1772 -254 -427 -398 -839
-473 -1353 -22 -153 -25 -683 -5 -845 146 -1159 774 -2157 1712 -2720 418
-252 871 -405 1402 -476 161 -21 555 -29 730 -15 568 47 1110 217 1560 488
l117 70 390 -403 391 -403 0 -408 0 -409 803 -806 c441 -444 1740 -1745 2886
-2892 l2083 -2086 357 1 356 1 485 509 c267 280 529 556 583 614 l97 105 0
332 0 332 -613 616 c-337 338 -1277 1285 -2088 2104 -811 819 -1816 1835
-2234 2257 l-760 767 -410 1 -410 1 -424 424 -424 424 50 83 c253 420 411 885
478 1399 23 175 31 522 16 705 -89 1117 -609 2049 -1497 2682 -497 356 -1099
587 -1709 658 -162 19 -493 27 -644 15z m609 -630 c930 -84 1743 -569 2262
-1350 97 -147 247 -439 302 -590 84 -232 148 -491 177 -725 20 -152 17 -591
-5 -745 -95 -689 -391 -1285 -874 -1765 -66 -66 -139 -131 -162 -145 -23 -14
-78 -51 -123 -83 -153 -109 -282 -194 -382 -252 -55 -31 -127 -75 -160 -96
-137 -87 -483 -201 -757 -248 -191 -33 -315 -43 -533 -43 -484 0 -927 106
-1350 322 -1018 519 -1656 1561 -1655 2705 0 105 5 233 10 285 74 715 371
1349 865 1846 504 507 1152 815 1861 883 129 12 391 13 524 1z"/>
<path d="M6880 12514 c-913 -124 -1637 -841 -1774 -1757 -175 -1164 616 -2242
1763 -2401 129 -18 424 -21 551 -6 704 88 1304 516 1616 1155 240 493 278
1084 103 1607 -228 683 -798 1204 -1494 1366 -220 52 -539 66 -765 36z"/>
</g>
</svg>
